<svg width="117" height="41" viewBox="0 0 117 41" fill="none" xmlns="http://www.w3.org/2000/svg">
<path d="M20.2868 25.1108H17.3228L21.3508 14.4708H24.3908L28.4188 25.1108H25.4548L24.7708 23.2108H20.9708L20.2868 25.1108ZM21.6548 21.2348H24.0868L22.8708 17.6628L21.6548 21.2348ZM33.5102 19.1068C32.9731 19.1068 32.3651 19.2081 31.6862 19.4108V25.1108H29.0262V17.0548H31.3822L31.5342 17.8148C32.0104 17.5006 32.4968 17.2726 32.9934 17.1308C33.5 16.9788 33.9256 16.9028 34.2702 16.9028H34.9542C35.6432 16.9028 36.1955 17.1105 36.611 17.526C37.0264 17.9414 37.2342 18.4937 37.2342 19.1828V25.1108H34.5742V19.6388C34.5742 19.4868 34.5235 19.3601 34.4222 19.2588C34.3208 19.1574 34.1942 19.1068 34.0422 19.1068H33.5102ZM41.9444 17.3588V25.1108H39.2844V19.4108H38.1444V17.3588H41.9444ZM39.2844 14.3188H41.9444V16.4468H39.2844V14.3188ZM48.8651 16.9028C49.6859 16.9028 50.3193 17.2068 50.7651 17.8148C51.2313 17.5006 51.7329 17.2726 52.2699 17.1308C52.8171 16.9788 53.3035 16.9028 53.7291 16.9028H53.8811C54.5702 16.9028 55.1225 17.1105 55.5379 17.526C55.9534 17.9414 56.1611 18.4937 56.1611 19.1828V25.1108H53.5011V19.6388C53.5011 19.4868 53.4505 19.3601 53.3491 19.2588C53.2478 19.1574 53.1211 19.1068 52.9691 19.1068H52.8931C52.4371 19.1068 51.8545 19.2081 51.1451 19.4108V25.1108H48.4851V19.6388C48.4851 19.4868 48.4345 19.3601 48.3331 19.2588C48.2318 19.1574 48.1051 19.1068 47.9531 19.1068H47.8771C47.4211 19.1068 46.8385 19.2081 46.1291 19.4108V25.1108H43.4691V17.0548H45.8251L45.9771 17.8148C46.4534 17.5006 46.9398 17.2726 47.4363 17.1308C47.943 16.9788 48.3686 16.9028 48.7131 16.9028H48.8651ZM60.6422 18.8028C60.2368 18.8028 60.0342 19.0054 60.0342 19.4108V20.2468H62.6182V19.4108C62.6182 19.0054 62.4155 18.8028 62.0102 18.8028H60.6422ZM64.9742 24.9588C63.0184 25.1614 61.2451 25.2628 59.6542 25.2628C58.9651 25.2628 58.4128 25.055 57.9974 24.6396C57.5819 24.2241 57.3742 23.6718 57.3742 22.9828V19.3348C57.3742 18.5748 57.587 17.982 58.0126 17.5564C58.4483 17.1206 59.0462 16.9028 59.8062 16.9028H62.8462C63.6062 16.9028 64.199 17.1206 64.6246 17.5564C65.0603 17.982 65.2782 18.5748 65.2782 19.3348V22.1468H60.0342V22.7548C60.0342 22.9068 60.0848 23.0334 60.1862 23.1348C60.2875 23.2361 60.4142 23.2868 60.5662 23.2868C61.5694 23.2868 63.0387 23.2108 64.9742 23.0588V24.9588ZM74.0853 22.9828H79.6333V25.1108H71.3493V14.4708H74.0853V22.9828ZM83.8928 17.3588V25.1108H81.2328V19.4108H80.0928V17.3588H83.8928ZM81.2328 14.3188H83.8928V16.4468H81.2328V14.3188ZM85.1136 22.9828C87.1706 23.1348 88.792 23.2108 89.9776 23.2108C90.1296 23.2108 90.2562 23.1601 90.3576 23.0588C90.4589 22.9574 90.5096 22.8308 90.5096 22.6788V22.1468H87.2416C86.5525 22.1468 86.0002 21.939 85.5848 21.5236C85.1693 21.1081 84.9616 20.5558 84.9616 19.8668V19.3348C84.9616 18.6457 85.1693 18.0934 85.5848 17.678C86.0002 17.2625 86.5525 17.0548 87.2416 17.0548H92.4096V19.0308H88.1536C88.0016 19.0308 87.8749 19.0814 87.7736 19.1828C87.6722 19.2841 87.6216 19.4108 87.6216 19.5628C87.6216 19.7148 87.6722 19.8414 87.7736 19.9428C87.8749 20.0441 88.0016 20.0948 88.1536 20.0948H90.8896C91.5786 20.0948 92.1309 20.3025 92.5464 20.718C92.9618 21.1334 93.1696 21.6857 93.1696 22.3748V22.9828C93.1696 23.6718 92.9618 24.2241 92.5464 24.6396C92.1309 25.055 91.5786 25.2628 90.8896 25.2628C89.096 25.2628 87.1706 25.1614 85.1136 24.9588V22.9828ZM99.8588 25.1108C98.8758 25.2121 97.9132 25.2628 96.9708 25.2628C96.2817 25.2628 95.7294 25.055 95.314 24.6396C94.8985 24.2241 94.6908 23.6718 94.6908 22.9828V19.1068H93.7788V17.0548H94.6908L94.9948 15.2308H97.3508V17.0548H99.2508V19.1068H97.3508V22.6028C97.3508 22.7548 97.4014 22.8814 97.5028 22.9828C97.6041 23.0841 97.7308 23.1348 97.8828 23.1348H99.8588V25.1108Z" fill="#9D9D9D"/>
<path d="M114.987 20.7467V39.4933H58.4932" stroke="#B00038" stroke-width="2.53333" stroke-linejoin="round"/>
<path d="M2 20.7467V2H58.4933" stroke="#B00038" stroke-width="2.53333" stroke-linejoin="round"/>
</svg>
