<?xml version="1.0" encoding="UTF-8" standalone="no"?>
<!DOCTYPE svg PUBLIC "-//W3C//DTD SVG 1.1//EN" "http://www.w3.org/2000/svg">
<svg version="1.1" xmlns="http://www.w3.org/2000/svg" xmlns:xlink="http://www.w3.org/1999/xlink" preserveAspectRatio="xMidYMid meet" viewBox="0 0 23.94 14.89" width="23.94" height="14.89"><defs><path d="M0.66 4.65C-0.22 3.78 -0.22 2.34 0.66 1.46C0.74 1.38 1.38 0.74 1.46 0.66C2.34 -0.22 3.78 -0.22 4.65 0.66C5.14 1.15 7.58 3.58 11.97 7.97C16.36 3.58 18.8 1.15 19.28 0.66C20.16 -0.22 21.6 -0.22 22.48 0.66C22.56 0.74 23.2 1.38 23.28 1.46C24.16 2.34 24.16 3.78 23.28 4.65C22.32 5.61 14.65 13.28 13.69 14.24C13.22 14.71 12.59 14.92 11.97 14.89C11.35 14.92 10.72 14.71 10.24 14.24C8.33 12.32 1.62 5.61 0.66 4.65Z" id="a68MyyLYGK"></path></defs><g><g><g><use xlink:href="#a68MyyLYGK" opacity="1" fill="#9d9d9d" fill-opacity="1"></use></g></g></g></svg>