<svg width="117" height="41" viewBox="0 0 117 41" fill="none" xmlns="http://www.w3.org/2000/svg">
<path d="M9.23571 14.4708H15.6197C16.6837 14.4708 17.4538 14.714 17.9301 15.2004C18.4165 15.6767 18.6597 16.4468 18.6597 17.5108V19.0308C18.6597 20.0948 18.4165 20.87 17.9301 21.3564C17.4538 21.8327 16.6837 22.0708 15.6197 22.0708H11.9717V25.1108H9.23571V14.4708ZM15.9237 17.5108C15.9237 16.9028 15.6197 16.5988 15.0117 16.5988H11.9717V19.9428H15.0117C15.6197 19.9428 15.9237 19.6388 15.9237 19.0308V17.5108ZM24.5111 19.2588C23.8727 19.2588 23.214 19.4108 22.5351 19.7148V25.1108H19.8751V17.0548H22.2311L22.3831 18.0428C23.2546 17.2828 24.1666 16.9028 25.1191 16.9028H25.8031V19.2588H24.5111ZM34.7776 22.8308C34.7776 23.5908 34.5598 24.1887 34.124 24.6244C33.6984 25.05 33.1056 25.2628 32.3456 25.2628H28.8496C28.0896 25.2628 27.4918 25.05 27.056 24.6244C26.6304 24.1887 26.4176 23.5908 26.4176 22.8308V19.3348C26.4176 18.5748 26.6304 17.982 27.056 17.5564C27.4918 17.1207 28.0896 16.9028 28.8496 16.9028H32.3456C33.1056 16.9028 33.6984 17.1207 34.124 17.5564C34.5598 17.982 34.7776 18.5748 34.7776 19.3348V22.8308ZM32.1176 19.5628C32.1176 19.1575 31.915 18.9548 31.5096 18.9548H29.6856C29.2803 18.9548 29.0776 19.1575 29.0776 19.5628V22.6028C29.0776 23.0082 29.2803 23.2108 29.6856 23.2108H31.5096C31.915 23.2108 32.1176 23.0082 32.1176 22.6028V19.5628ZM43.2119 19.1068L39.0319 23.0588H43.2119V25.1108H35.6879V23.0588L39.8679 19.1068H35.6879V17.0548H43.2119V19.1068ZM46.9382 21.9188V25.1108H44.2782V14.4708H46.9382V19.8668H48.1542L49.8262 17.0548H52.6382L50.3582 20.9308L52.6382 25.1108H49.8262L48.0782 21.9188H46.9382ZM61.4519 22.8308C61.4519 23.5908 61.234 24.1887 60.7983 24.6244C60.3727 25.05 59.7799 25.2628 59.0199 25.2628H55.5239C54.7639 25.2628 54.166 25.05 53.7303 24.6244C53.3047 24.1887 53.0919 23.5908 53.0919 22.8308V19.3348C53.0919 18.5748 53.3047 17.982 53.7303 17.5564C54.166 17.1207 54.7639 16.9028 55.5239 16.9028H59.0199C59.7799 16.9028 60.3727 17.1207 60.7983 17.5564C61.234 17.982 61.4519 18.5748 61.4519 19.3348V22.8308ZM58.7919 19.5628C58.7919 19.1575 58.5892 18.9548 58.1839 18.9548H56.3599C55.9545 18.9548 55.7519 19.1575 55.7519 19.5628V22.6028C55.7519 23.0082 55.9545 23.2108 56.3599 23.2108H58.1839C58.5892 23.2108 58.7919 23.0082 58.7919 22.6028V19.5628ZM66.5421 23.0588C67.0791 23.0588 67.6871 22.9575 68.3661 22.7548V17.0548H71.0261V25.1108H68.6701L68.5181 24.3508C68.0418 24.665 67.5503 24.898 67.0437 25.05C66.5471 25.1919 66.1266 25.2628 65.7821 25.2628H65.0981C64.409 25.2628 63.8567 25.0551 63.4413 24.6396C63.0258 24.2242 62.8181 23.6719 62.8181 22.9828V17.0548H65.4781V22.5268C65.4781 22.6788 65.5287 22.8055 65.6301 22.9068C65.7314 23.0082 65.8581 23.0588 66.0101 23.0588H66.5421ZM77.9367 16.9028C78.7575 16.9028 79.3909 17.2068 79.8367 17.8148C80.3029 17.5007 80.8045 17.2727 81.3415 17.1308C81.8887 16.9788 82.3751 16.9028 82.8007 16.9028H82.9527C83.6418 16.9028 84.1941 17.1106 84.6095 17.526C85.025 17.9415 85.2327 18.4938 85.2327 19.1828V25.1108H82.5727V19.6388C82.5727 19.4868 82.5221 19.3602 82.4207 19.2588C82.3194 19.1575 82.1927 19.1068 82.0407 19.1068H81.9647C81.5087 19.1068 80.9261 19.2082 80.2167 19.4108V25.1108H77.5567V19.6388C77.5567 19.4868 77.5061 19.3602 77.4047 19.2588C77.3034 19.1575 77.1767 19.1068 77.0247 19.1068H76.9487C76.4927 19.1068 75.9101 19.2082 75.2007 19.4108V25.1108H72.5407V17.0548H74.8967L75.0487 17.8148C75.525 17.5007 76.0114 17.2727 76.5079 17.1308C77.0146 16.9788 77.4402 16.9028 77.7847 16.9028H77.9367ZM89.7898 23.1348C90.3268 23.1348 90.9348 23.0335 91.6138 22.8308V21.9188H89.4098C89.2578 21.9188 89.1311 21.9695 89.0298 22.0708C88.9284 22.1722 88.8778 22.2988 88.8778 22.4508V22.6028C88.8778 22.7548 88.9284 22.8815 89.0298 22.9828C89.1311 23.0842 89.2578 23.1348 89.4098 23.1348H89.7898ZM86.9778 17.2068C88.8322 17.0042 90.5042 16.9028 91.9938 16.9028C92.6828 16.9028 93.2351 17.1106 93.6506 17.526C94.066 17.9415 94.2738 18.4938 94.2738 19.1828V25.1108H91.9178L91.7658 24.3508C91.2895 24.665 90.798 24.898 90.2914 25.05C89.7948 25.1919 89.3743 25.2628 89.0298 25.2628H88.4978C87.8087 25.2628 87.2564 25.0551 86.841 24.6396C86.4255 24.2242 86.2178 23.6719 86.2178 22.9828V22.2988C86.2178 21.6098 86.4255 21.0575 86.841 20.642C87.2564 20.2266 87.8087 20.0188 88.4978 20.0188H91.6138V19.4108C91.6138 19.2588 91.5631 19.1322 91.4618 19.0308C91.3604 18.9295 91.2338 18.8788 91.0818 18.8788C90.4231 18.8788 89.6935 18.9092 88.893 18.97C88.1026 19.0308 87.4642 19.0764 86.9778 19.1068V17.2068ZM89.1666 16.4316L90.0786 13.8476H92.8146L91.1426 16.4316H89.1666ZM100.122 19.1068C99.5845 19.1068 98.9765 19.2082 98.2976 19.4108V25.1108H95.6376V17.0548H97.9936L98.1456 17.8148C98.6219 17.5007 99.1083 17.2727 99.6048 17.1308C100.111 16.9788 100.537 16.9028 100.882 16.9028H101.566C102.255 16.9028 102.807 17.1106 103.222 17.526C103.638 17.9415 103.846 18.4938 103.846 19.1828V25.1108H101.186V19.6388C101.186 19.4868 101.135 19.3602 101.034 19.2588C100.932 19.1575 100.806 19.1068 100.654 19.1068H100.122ZM108.556 17.0548V25.1108H105.896V19.1068H104.756V17.0548H108.556ZM105.972 16.4316L106.884 13.8476H109.62L107.948 16.4316H105.972Z" fill="#9D9D9D"/>
<path d="M114.987 20.7466V39.4933H58.4934" stroke="#B00038" stroke-width="2.53333" stroke-linejoin="round"/>
<path d="M2 20.7467V2H58.4933" stroke="#B00038" stroke-width="2.53333" stroke-linejoin="round"/>
</svg>
