<svg width="117" height="41" viewBox="0 0 117 41" fill="none" xmlns="http://www.w3.org/2000/svg">
<path d="M26.3914 14.3772H32.7754C33.8394 14.3772 34.6095 14.6204 35.0858 15.1068C35.5722 15.5831 35.8154 16.3532 35.8154 17.4172V18.9372C35.8154 20.0012 35.5722 20.7764 35.0858 21.2628C34.6095 21.7391 33.8394 21.9772 32.7754 21.9772H29.1274V25.0172H26.3914V14.3772ZM33.0794 17.4172C33.0794 16.8092 32.7754 16.5052 32.1674 16.5052H29.1274V19.8492H32.1674C32.7754 19.8492 33.0794 19.5452 33.0794 18.9372V17.4172ZM41.6668 19.1652C41.0284 19.1652 40.3697 19.3172 39.6908 19.6212V25.0172H37.0308V16.9612H39.3868L39.5388 17.9492C40.4103 17.1892 41.3223 16.8092 42.2748 16.8092H42.9588V19.1652H41.6668ZM38.9308 13.7692L39.9188 14.9852L40.9068 13.7692H42.8068L40.9828 16.3532H38.8548L37.0308 13.7692H38.9308ZM47.3662 17.2652V25.0172H44.7062V19.3172H43.5662V17.2652H47.3662ZM44.7062 14.2252H47.3662V16.3532H44.7062V14.2252ZM51.551 17.1132C52.5339 16.9105 53.3952 16.8092 54.135 16.8092H54.819C55.508 16.8092 56.0603 17.0169 56.4758 17.4324C56.8912 17.8479 57.099 18.4001 57.099 19.0892V25.0172H54.439V19.3932C54.439 19.2412 54.3883 19.1145 54.287 19.0132C54.1856 18.9119 54.059 18.8612 53.907 18.8612H53.375C52.9899 18.8612 52.6352 18.8815 52.311 18.922C51.9968 18.9625 51.7435 18.9929 51.551 19.0132V25.0172H48.891V14.3772H51.551V17.1132ZM62.5692 25.0172C61.8902 25.1185 61.2417 25.1692 60.6236 25.1692C60.0156 25.1692 59.5038 24.9615 59.0884 24.546C58.6729 24.1305 58.4652 23.5783 58.4652 22.8892V14.3772H61.1252V22.5092C61.1252 22.6612 61.1758 22.7879 61.2772 22.8892C61.3785 22.9905 61.5052 23.0412 61.6572 23.0412H62.5692V25.0172ZM66.8228 23.0412C67.3599 23.0412 67.9679 22.9399 68.6468 22.7372V21.8252H66.4428C66.2908 21.8252 66.1641 21.8759 66.0628 21.9772C65.9615 22.0785 65.9108 22.2052 65.9108 22.3572V22.5092C65.9108 22.6612 65.9615 22.7879 66.0628 22.8892C66.1641 22.9905 66.2908 23.0412 66.4428 23.0412H66.8228ZM64.0108 17.1132C65.8652 16.9105 67.5372 16.8092 69.0268 16.8092C69.7159 16.8092 70.2681 17.0169 70.6836 17.4324C71.0991 17.8479 71.3068 18.4001 71.3068 19.0892V25.0172H68.9508L68.7988 24.2572C68.3225 24.5713 67.8311 24.8044 67.3244 24.9564C66.8279 25.0983 66.4073 25.1692 66.0628 25.1692H65.5308C64.8417 25.1692 64.2895 24.9615 63.874 24.546C63.4585 24.1305 63.2508 23.5783 63.2508 22.8892V22.2052C63.2508 21.5161 63.4585 20.9639 63.874 20.5484C64.2895 20.1329 64.8417 19.9252 65.5308 19.9252H68.6468V19.3172C68.6468 19.1652 68.5961 19.0385 68.4948 18.9372C68.3935 18.8359 68.2668 18.7852 68.1148 18.7852C67.4561 18.7852 66.7265 18.8156 65.926 18.8764C65.1356 18.9372 64.4972 18.9828 64.0108 19.0132V17.1132ZM66.1996 16.338L67.1116 13.754H69.8476L68.1756 16.338H66.1996ZM72.3666 22.8892C74.4237 23.0412 76.045 23.1172 77.2306 23.1172C77.3826 23.1172 77.5093 23.0665 77.6106 22.9652C77.712 22.8639 77.7626 22.7372 77.7626 22.5852V22.0532H74.4946C73.8056 22.0532 73.2533 21.8455 72.8378 21.43C72.4224 21.0145 72.2146 20.4623 72.2146 19.7732V19.2412C72.2146 18.5521 72.4224 17.9999 72.8378 17.5844C73.2533 17.1689 73.8056 16.9612 74.4946 16.9612H79.6626V18.9372H75.4066C75.2546 18.9372 75.128 18.9879 75.0266 19.0892C74.9253 19.1905 74.8746 19.3172 74.8746 19.4692C74.8746 19.6212 74.9253 19.7479 75.0266 19.8492C75.128 19.9505 75.2546 20.0012 75.4066 20.0012H78.1426C78.8317 20.0012 79.384 20.2089 79.7994 20.6244C80.2149 21.0399 80.4226 21.5921 80.4226 22.2812V22.8892C80.4226 23.5783 80.2149 24.1305 79.7994 24.546C79.384 24.9615 78.8317 25.1692 78.1426 25.1692C76.349 25.1692 74.4237 25.0679 72.3666 24.8652V22.8892ZM84.6834 17.2652V25.0172H82.0234V19.3172H80.8834V17.2652H84.6834ZM82.0234 14.2252H84.6834V16.3532H82.0234V14.2252ZM91.8321 25.0172C90.8492 25.1185 89.8865 25.1692 88.9441 25.1692C88.2551 25.1692 87.7028 24.9615 87.2873 24.546C86.8719 24.1305 86.6641 23.5783 86.6641 22.8892V19.0132H85.7521V16.9612H86.6641L86.9681 15.1372H89.3241V16.9612H91.2241V19.0132H89.3241V22.5092C89.3241 22.6612 89.3748 22.7879 89.4761 22.8892C89.5775 22.9905 89.7041 23.0412 89.8561 23.0412H91.8321V25.0172Z" fill="#9D9D9D"/>
<path d="M114.987 20.5V39H58.4866" stroke="#B00038" stroke-width="2.53333" stroke-linejoin="round"/>
<path d="M1.98657 20.5V2H58.4866" stroke="#B00038" stroke-width="2.53333" stroke-linejoin="round"/>
</svg>
