<svg width="117" height="41" viewBox="0 0 117 41" fill="none" xmlns="http://www.w3.org/2000/svg">
<path d="M14.6053 14.3772H20.9893C22.0533 14.3772 22.8235 14.6204 23.2997 15.1068C23.7861 15.5831 24.0293 16.3532 24.0293 17.4172V18.7852C24.0293 19.6263 23.8875 20.2799 23.6037 20.746C23.3301 21.2121 22.8893 21.5212 22.2813 21.6732L24.1813 25.0172H21.2173L19.4693 21.8252H17.3413V25.0172H14.6053V14.3772ZM21.2933 17.4172C21.2933 16.8092 20.9893 16.5052 20.3813 16.5052H17.3413V19.6972H20.3813C20.9893 19.6972 21.2933 19.3932 21.2933 18.7852V17.4172ZM28.5092 18.7092C28.1038 18.7092 27.9012 18.9119 27.9012 19.3172V20.1532H30.4852V19.3172C30.4852 18.9119 30.2825 18.7092 29.8772 18.7092H28.5092ZM32.8412 24.8652C30.8854 25.0679 29.1121 25.1692 27.5212 25.1692C26.8321 25.1692 26.2798 24.9615 25.8644 24.546C25.4489 24.1305 25.2412 23.5783 25.2412 22.8892V19.2412C25.2412 18.4812 25.454 17.8884 25.8796 17.4628C26.3153 17.0271 26.9132 16.8092 27.6732 16.8092H30.7132C31.4732 16.8092 32.066 17.0271 32.4916 17.4628C32.9273 17.8884 33.1452 18.4812 33.1452 19.2412V22.0532H27.9012V22.6612C27.9012 22.8132 27.9518 22.9399 28.0532 23.0412C28.1545 23.1425 28.2812 23.1932 28.4332 23.1932C29.4364 23.1932 30.9057 23.1172 32.8412 22.9652V24.8652ZM39.7512 24.4092C38.7683 24.6119 37.907 24.7132 37.1672 24.7132H36.6352C35.9462 24.7132 35.3939 24.5055 34.9784 24.09C34.563 23.6745 34.3552 23.1223 34.3552 22.4332V19.3932C34.3552 18.6332 34.568 18.0404 34.9936 17.6148C35.4294 17.1791 36.0272 16.9612 36.7872 16.9612H42.4112V25.4732C42.4112 26.1623 42.2035 26.7145 41.788 27.13C41.3726 27.5455 40.8203 27.7532 40.1312 27.7532C38.5403 27.7532 36.767 27.6519 34.8112 27.4492V25.4732C36.7467 25.6252 38.216 25.7012 39.2192 25.7012C39.3712 25.7012 39.4979 25.6505 39.5992 25.5492C39.7006 25.4479 39.7512 25.3212 39.7512 25.1692V24.4092ZM37.9272 22.6612C38.5656 22.6612 39.1736 22.6105 39.7512 22.5092V19.0132H37.6232C37.2179 19.0132 37.0152 19.2159 37.0152 19.6212V22.1292C37.0152 22.2812 37.0659 22.4079 37.1672 22.5092C37.2686 22.6105 37.3952 22.6612 37.5472 22.6612H37.9272ZM47.277 17.2652V25.0172H44.617V19.3172H43.477V17.2652H47.277ZM44.617 14.2252H47.277V16.3532H44.617V14.2252ZM48.4978 22.8892C50.5548 23.0412 52.1762 23.1172 53.3618 23.1172C53.5138 23.1172 53.6404 23.0665 53.7418 22.9652C53.8431 22.8639 53.8938 22.7372 53.8938 22.5852V22.0532H50.6258C49.9367 22.0532 49.3844 21.8455 48.969 21.43C48.5535 21.0145 48.3458 20.4623 48.3458 19.7732V19.2412C48.3458 18.5521 48.5535 17.9999 48.969 17.5844C49.3844 17.1689 49.9367 16.9612 50.6258 16.9612H55.7938V18.9372H51.5378C51.3858 18.9372 51.2591 18.9879 51.1578 19.0892C51.0564 19.1905 51.0058 19.3172 51.0058 19.4692C51.0058 19.6212 51.0564 19.7479 51.1578 19.8492C51.2591 19.9505 51.3858 20.0012 51.5378 20.0012H54.2738C54.9628 20.0012 55.5151 20.2089 55.9306 20.6244C56.346 21.0399 56.5538 21.5921 56.5538 22.2812V22.8892C56.5538 23.5783 56.346 24.1305 55.9306 24.546C55.5151 24.9615 54.9628 25.1692 54.2738 25.1692C52.4802 25.1692 50.5548 25.0679 48.4978 24.8652V22.8892ZM63.243 25.0172C62.26 25.1185 61.2974 25.1692 60.355 25.1692C59.6659 25.1692 59.1136 24.9615 58.6982 24.546C58.2827 24.1305 58.075 23.5783 58.075 22.8892V19.0132H57.163V16.9612H58.075L58.379 15.1372H60.735V16.9612H62.635V19.0132H60.735V22.5092C60.735 22.6612 60.7856 22.7879 60.887 22.8892C60.9883 22.9905 61.115 23.0412 61.267 23.0412H63.243V25.0172ZM68.9495 19.1652C68.3111 19.1652 67.6524 19.3172 66.9735 19.6212V25.0172H64.3135V16.9612H66.6695L66.8215 17.9492C67.693 17.1892 68.605 16.8092 69.5575 16.8092H70.2415V19.1652H68.9495ZM79.216 22.7372C79.216 23.4972 78.9982 24.0951 78.5624 24.5308C78.1368 24.9564 77.544 25.1692 76.784 25.1692H73.288C72.528 25.1692 71.9302 24.9564 71.4944 24.5308C71.0688 24.0951 70.856 23.4972 70.856 22.7372V19.2412C70.856 18.4812 71.0688 17.8884 71.4944 17.4628C71.9302 17.0271 72.528 16.8092 73.288 16.8092H76.784C77.544 16.8092 78.1368 17.0271 78.5624 17.4628C78.9982 17.8884 79.216 18.4812 79.216 19.2412V22.7372ZM76.556 19.4692C76.556 19.0639 76.3534 18.8612 75.948 18.8612H74.124C73.7187 18.8612 73.516 19.0639 73.516 19.4692V22.5092C73.516 22.9145 73.7187 23.1172 74.124 23.1172H75.948C76.3534 23.1172 76.556 22.9145 76.556 22.5092V19.4692ZM85.8298 16.9612H88.6418L85.6018 25.0172H82.5618L79.5218 16.9612H82.3338L84.0818 22.4332L85.8298 16.9612ZM92.1461 23.0412C92.6832 23.0412 93.2912 22.9399 93.9701 22.7372V21.8252H91.7661C91.6141 21.8252 91.4874 21.8759 91.3861 21.9772C91.2848 22.0785 91.2341 22.2052 91.2341 22.3572V22.5092C91.2341 22.6612 91.2848 22.7879 91.3861 22.8892C91.4874 22.9905 91.6141 23.0412 91.7661 23.0412H92.1461ZM89.3341 17.1132C91.1885 16.9105 92.8605 16.8092 94.3501 16.8092C95.0392 16.8092 95.5914 17.0169 96.0069 17.4324C96.4224 17.8479 96.6301 18.4001 96.6301 19.0892V25.0172H94.2741L94.1221 24.2572C93.6458 24.5713 93.1544 24.8044 92.6477 24.9564C92.1512 25.0983 91.7306 25.1692 91.3861 25.1692H90.8541C90.165 25.1692 89.6128 24.9615 89.1973 24.546C88.7818 24.1305 88.5741 23.5783 88.5741 22.8892V22.2052C88.5741 21.5161 88.7818 20.9639 89.1973 20.5484C89.6128 20.1329 90.165 19.9252 90.8541 19.9252H93.9701V19.3172C93.9701 19.1652 93.9194 19.0385 93.8181 18.9372C93.7168 18.8359 93.5901 18.7852 93.4381 18.7852C92.7794 18.7852 92.0498 18.8156 91.2493 18.8764C90.4589 18.9372 89.8205 18.9828 89.3341 19.0132V17.1132ZM103.618 25.0172C102.635 25.1185 101.672 25.1692 100.73 25.1692C100.041 25.1692 99.4886 24.9615 99.0732 24.546C98.6577 24.1305 98.45 23.5783 98.45 22.8892V19.0132H97.538V16.9612H98.45L98.754 15.1372H101.11V16.9612H103.01V19.0132H101.11V22.5092C101.11 22.6612 101.161 22.7879 101.262 22.8892C101.363 22.9905 101.49 23.0412 101.642 23.0412H103.618V25.0172Z" fill="#9D9D9D"/>
<path d="M114.987 20.5V39H58.4866" stroke="#B00038" stroke-width="2.53333" stroke-linejoin="round"/>
<path d="M1.98657 20.5V2H58.4866" stroke="#B00038" stroke-width="2.53333" stroke-linejoin="round"/>
</svg>
