<svg width="10" height="15" xmlns="http://www.w3.org/2000/svg" xmlns:xlink="http://www.w3.org/1999/xlink" overflow="hidden"><defs><clipPath id="clip0"><path d="M93 86 103 86 103 101 93 101Z" fill-rule="evenodd" clip-rule="evenodd"/></clipPath><clipPath id="clip1"><path d="M93 87 102 87 102 100 93 100Z" fill-rule="evenodd" clip-rule="evenodd"/></clipPath><clipPath id="clip2"><path d="M93 87 102 87 102 100 93 100Z" fill-rule="evenodd" clip-rule="evenodd"/></clipPath></defs><g clip-path="url(#clip0)" transform="translate(-93 -86)"><g clip-path="url(#clip1)"><g clip-path="url(#clip2)"><path d="M9.33426 6.72748C9.24132 6.82023 9.16758 6.93041 9.11727 7.05169 9.06696 7.17299 9.04106 7.30301 9.04106 7.43432 9.04106 7.56563 9.06696 7.69564 9.11727 7.81693 9.16758 7.93821 9.24132 8.04839 9.33426 8.14115L13.2243 12.0312 9.33426 15.9213C9.14679 16.1088 9.04148 16.3631 9.04148 16.6282 9.04148 16.8933 9.14679 17.1475 9.33426 17.335 9.52173 17.5225 9.77599 17.6278 10.0411 17.6278 10.3062 17.6278 10.5604 17.5225 10.7479 17.335L15.3499 12.7331C15.4428 12.6403 15.5166 12.5301 15.5669 12.4088 15.6172 12.2876 15.6431 12.1576 15.6431 12.0262 15.6431 11.8949 15.6172 11.765 15.5669 11.6436 15.5166 11.5223 15.4428 11.4121 15.3499 11.3194L10.7479 6.71745C10.3669 6.33647 9.72528 6.33647 9.33426 6.72748Z" fill="#9D9D9D" transform="matrix(1.03049 0 0 1 85.1019 81.4688)"/></g></g></g></svg>