<svg width="435" height="124" viewBox="0 0 435 124" fill="none" xmlns="http://www.w3.org/2000/svg">
<g filter="url(#filter0_d)">
<path d="M87.0838 58.04H89.0838V50.3753L85.3387 57.0628L87.0838 58.04ZM78.1238 74.04V76.04H79.296L79.8688 75.0172L78.1238 74.04ZM69.1638 74.04L67.4187 75.0172L67.9915 76.04H69.1638V74.04ZM60.2038 58.04L61.9488 57.0628L58.2038 50.3753V58.04H60.2038ZM60.2038 83V85H62.2038V83H60.2038ZM48.6838 83H46.6838V85H48.6838V83ZM48.6838 38.2V36.2H46.6838V38.2H48.6838ZM60.8438 38.2L62.6032 37.249L62.0362 36.2H60.8438V38.2ZM73.6438 61.88L71.8843 62.831L73.6438 66.0859L75.4032 62.831L73.6438 61.88ZM86.4438 38.2V36.2H85.2513L84.6843 37.249L86.4438 38.2ZM98.6038 38.2H100.604V36.2H98.6038V38.2ZM98.6038 83V85H100.604V83H98.6038ZM87.0838 83H85.0838V85H87.0838V83ZM85.3387 57.0628L76.3787 73.0628L79.8688 75.0172L88.8288 59.0172L85.3387 57.0628ZM78.1238 72.04H69.1638V76.04H78.1238V72.04ZM70.9088 73.0628L61.9488 57.0628L58.4587 59.0172L67.4187 75.0172L70.9088 73.0628ZM58.2038 58.04V83H62.2038V58.04H58.2038ZM60.2038 81H48.6838V85H60.2038V81ZM50.6838 83V38.2H46.6838V83H50.6838ZM48.6838 40.2H60.8438V36.2H48.6838V40.2ZM59.0843 39.151L71.8843 62.831L75.4032 60.929L62.6032 37.249L59.0843 39.151ZM75.4032 62.831L88.2032 39.151L84.6843 37.249L71.8843 60.929L75.4032 62.831ZM86.4438 40.2H98.6038V36.2H86.4438V40.2ZM96.6038 38.2V83H100.604V38.2H96.6038ZM98.6038 81H87.0838V85H98.6038V81ZM89.0838 83V58.04H85.0838V83H89.0838ZM137.477 80.952L138.891 82.3662L138.891 82.3662L137.477 80.952ZM107.717 80.952L106.286 82.3495L106.302 82.3663L106.319 82.3828L107.717 80.952ZM107.717 51.192L109.131 52.6062L109.131 52.6062L107.717 51.192ZM137.477 51.192L136.046 52.5895L136.062 52.6063L136.079 52.6228L137.477 51.192ZM138.229 73.4C138.229 76.2009 137.438 78.1618 136.063 79.5378L138.891 82.3662C141.184 80.0728 142.229 76.9991 142.229 73.4H138.229ZM136.063 79.5378C134.738 80.8624 132.805 81.64 129.989 81.64V85.64C133.572 85.64 136.632 84.6256 138.891 82.3662L136.063 79.5378ZM129.989 81.64H115.269V85.64H129.989V81.64ZM115.269 81.64C112.455 81.64 110.488 80.863 109.114 79.5212L106.319 82.3828C108.615 84.625 111.683 85.64 115.269 85.64V81.64ZM109.148 79.5545C107.806 78.1808 107.029 76.214 107.029 73.4H103.029C103.029 76.986 104.044 80.0539 106.286 82.3495L109.148 79.5545ZM107.029 73.4V58.68H103.029V73.4H107.029ZM107.029 58.68C107.029 55.8637 107.806 53.9308 109.131 52.6062L106.303 49.7778C104.043 52.0372 103.029 55.0963 103.029 58.68H107.029ZM109.131 52.6062C110.507 51.2303 112.468 50.44 115.269 50.44V46.44C111.67 46.44 108.596 47.4844 106.303 49.7778L109.131 52.6062ZM115.269 50.44H129.989V46.44H115.269V50.44ZM129.989 50.44C132.792 50.44 134.719 51.2308 136.046 52.5895L138.908 49.7945C136.651 47.4839 133.586 46.44 129.989 46.44V50.44ZM136.079 52.6228C137.438 53.9498 138.229 55.877 138.229 58.68H142.229C142.229 55.083 141.185 52.0182 138.874 49.7612L136.079 52.6228ZM138.229 58.68V73.4H142.229V58.68H138.229ZM131.029 59.64C131.029 58.4784 130.737 57.2398 129.803 56.3058C128.869 55.3718 127.63 55.08 126.469 55.08V59.08C127.014 59.08 127.055 59.2149 126.975 59.1342C126.894 59.0535 127.029 59.095 127.029 59.64H131.029ZM126.469 55.08H118.789V59.08H126.469V55.08ZM118.789 55.08C117.627 55.08 116.389 55.3718 115.455 56.3058C114.521 57.2398 114.229 58.4784 114.229 59.64H118.229C118.229 59.095 118.364 59.0535 118.283 59.1342C118.202 59.2149 118.244 59.08 118.789 59.08V55.08ZM114.229 59.64V72.44H118.229V59.64H114.229ZM114.229 72.44C114.229 73.6016 114.521 74.8402 115.455 75.7742C116.389 76.7082 117.627 77 118.789 77V73C118.244 73 118.202 72.8651 118.283 72.9458C118.364 73.0265 118.229 72.985 118.229 72.44H114.229ZM118.789 77H126.469V73H118.789V77ZM126.469 77C127.63 77 128.869 76.7082 129.803 75.7742C130.737 74.8402 131.029 73.6016 131.029 72.44H127.029C127.029 72.985 126.894 73.0265 126.975 72.9458C127.055 72.8651 127.014 73 126.469 73V77ZM131.029 72.44V59.64H127.029V72.44H131.029ZM141.501 38.2V36.2H138.223L139.723 39.1151L141.501 38.2ZM153.661 38.2L155.461 37.3268L154.914 36.2H153.661V38.2ZM164.221 59.96L162.422 60.8332L164.221 64.5409L166.021 60.8332L164.221 59.96ZM174.781 38.2V36.2H173.529L172.982 37.3268L174.781 38.2ZM186.941 38.2L188.72 39.1151L190.22 36.2H186.941V38.2ZM169.981 71.16L168.203 70.2449L167.981 70.6756V71.16H169.981ZM169.981 83V85H171.981V83H169.981ZM158.461 83H156.461V85H158.461V83ZM158.461 71.16H160.461V70.6756L160.24 70.2449L158.461 71.16ZM141.501 40.2H153.661V36.2H141.501V40.2ZM151.862 39.0732L162.422 60.8332L166.021 59.0868L155.461 37.3268L151.862 39.0732ZM166.021 60.8332L176.581 39.0732L172.982 37.3268L162.422 59.0868L166.021 60.8332ZM174.781 40.2H186.941V36.2H174.781V40.2ZM185.163 37.2849L168.203 70.2449L171.76 72.0751L188.72 39.1151L185.163 37.2849ZM167.981 71.16V83H171.981V71.16H167.981ZM169.981 81H158.461V85H169.981V81ZM160.461 83V71.16H156.461V83H160.461ZM160.24 70.2449L143.28 37.2849L139.723 39.1151L156.683 72.0751L160.24 70.2449ZM217.477 80.952L218.891 82.3662L218.891 82.3662L217.477 80.952ZM187.717 80.952L186.286 82.3495L186.302 82.3663L186.319 82.3828L187.717 80.952ZM187.717 51.192L189.131 52.6062L189.131 52.6062L187.717 51.192ZM217.477 51.192L216.046 52.5895L216.062 52.6063L216.079 52.6228L217.477 51.192ZM218.229 73.4C218.229 76.2009 217.438 78.1618 216.063 79.5378L218.891 82.3662C221.184 80.0728 222.229 76.9991 222.229 73.4H218.229ZM216.063 79.5378C214.738 80.8624 212.805 81.64 209.989 81.64V85.64C213.572 85.64 216.632 84.6256 218.891 82.3662L216.063 79.5378ZM209.989 81.64H195.269V85.64H209.989V81.64ZM195.269 81.64C192.455 81.64 190.488 80.863 189.114 79.5212L186.319 82.3828C188.615 84.625 191.683 85.64 195.269 85.64V81.64ZM189.148 79.5545C187.806 78.1808 187.029 76.214 187.029 73.4H183.029C183.029 76.986 184.044 80.0539 186.286 82.3495L189.148 79.5545ZM187.029 73.4V58.68H183.029V73.4H187.029ZM187.029 58.68C187.029 55.8637 187.806 53.9308 189.131 52.6062L186.303 49.7778C184.043 52.0372 183.029 55.0963 183.029 58.68H187.029ZM189.131 52.6062C190.507 51.2303 192.468 50.44 195.269 50.44V46.44C191.67 46.44 188.596 47.4844 186.303 49.7778L189.131 52.6062ZM195.269 50.44H209.989V46.44H195.269V50.44ZM209.989 50.44C212.792 50.44 214.719 51.2308 216.046 52.5895L218.908 49.7945C216.651 47.4839 213.586 46.44 209.989 46.44V50.44ZM216.079 52.6228C217.438 53.9498 218.229 55.877 218.229 58.68H222.229C222.229 55.083 221.185 52.0182 218.874 49.7612L216.079 52.6228ZM218.229 58.68V73.4H222.229V58.68H218.229ZM211.029 59.64C211.029 58.4784 210.737 57.2398 209.803 56.3058C208.869 55.3718 207.63 55.08 206.469 55.08V59.08C207.014 59.08 207.055 59.2149 206.975 59.1342C206.894 59.0535 207.029 59.095 207.029 59.64H211.029ZM206.469 55.08H198.789V59.08H206.469V55.08ZM198.789 55.08C197.627 55.08 196.389 55.3718 195.455 56.3058C194.521 57.2398 194.229 58.4784 194.229 59.64H198.229C198.229 59.095 198.364 59.0535 198.283 59.1342C198.202 59.2149 198.244 59.08 198.789 59.08V55.08ZM194.229 59.64V72.44H198.229V59.64H194.229ZM194.229 72.44C194.229 73.6016 194.521 74.8402 195.455 75.7742C196.389 76.7082 197.627 77 198.789 77V73C198.244 73 198.202 72.8651 198.283 72.9458C198.364 73.0265 198.229 72.985 198.229 72.44H194.229ZM198.789 77H206.469V73H198.789V77ZM206.469 77C207.63 77 208.869 76.7082 209.803 75.7742C210.737 74.8402 211.029 73.6016 211.029 72.44H207.029C207.029 72.985 206.894 73.0265 206.975 72.9458C207.055 72.8651 207.014 73 206.469 73V77ZM211.029 72.44V59.64H207.029V72.44H211.029ZM248.061 57.72L246.647 59.1342L246.647 59.1342L248.061 57.72ZM240.189 57.336L239.933 55.3524L239.925 55.3535L240.189 57.336ZM237.181 57.72L236.948 55.7337L235.181 55.9415V57.72H237.181ZM237.181 74.36H235.181V76.36H237.181V74.36ZM237.181 49.72H235.181V52.1744L237.585 51.6788L237.181 49.72ZM257.277 51.064L255.863 52.4782L255.863 52.4782L257.277 51.064ZM257.149 80.312L255.735 78.8978L255.735 78.8978L257.149 80.312ZM225.981 83H223.981V85H225.981V83ZM225.981 38.2V36.2H223.981V38.2H225.981ZM237.181 38.2H239.181V36.2H237.181V38.2ZM250.701 59.32C250.701 58.1853 250.302 57.132 249.475 56.3058L246.647 59.1342C246.665 59.152 246.673 59.1639 246.677 59.1694C246.681 59.1747 246.683 59.1786 246.684 59.1828C246.686 59.1877 246.701 59.2254 246.701 59.32H250.701ZM249.475 56.3058C248.649 55.4795 247.596 55.08 246.461 55.08V59.08C246.556 59.08 246.594 59.095 246.598 59.097C246.603 59.0986 246.607 59.1006 246.612 59.1041C246.617 59.1078 246.629 59.1164 246.647 59.1342L249.475 56.3058ZM246.461 55.08H244.861V59.08H246.461V55.08ZM244.861 55.08C243.011 55.08 241.364 55.1678 239.933 55.3524L240.445 59.3196C241.66 59.1628 243.128 59.08 244.861 59.08V55.08ZM239.925 55.3535C238.649 55.5237 237.658 55.6501 236.948 55.7337L237.415 59.7063C238.155 59.6192 239.17 59.4896 240.454 59.3185L239.925 55.3535ZM235.181 57.72V74.36H239.181V57.72H235.181ZM237.181 76.36H246.141V72.36H237.181V76.36ZM246.141 76.36C247.303 76.36 248.541 76.0682 249.475 75.1342C250.409 74.2002 250.701 72.9616 250.701 71.8H246.701C246.701 72.345 246.566 72.3865 246.647 72.3058C246.728 72.2251 246.686 72.36 246.141 72.36V76.36ZM250.701 71.8V59.32H246.701V71.8H250.701ZM237.585 51.6788C241.635 50.8439 245.121 50.44 248.061 50.44V46.44C244.773 46.44 241.005 46.8895 236.777 47.7612L237.585 51.6788ZM248.061 50.44H250.301V46.44H248.061V50.44ZM250.301 50.44C252.771 50.44 254.553 51.1685 255.863 52.4782L258.691 49.6498C256.503 47.4609 253.634 46.44 250.301 46.44V50.44ZM255.863 52.4782C257.173 53.788 257.901 55.5703 257.901 58.04H261.901C261.901 54.707 260.88 51.8387 258.691 49.6498L255.863 52.4782ZM257.901 58.04V72.76H261.901V58.04H257.901ZM257.901 72.76C257.901 75.5609 257.111 77.5218 255.735 78.8978L258.563 81.7262C260.857 79.4328 261.901 76.3591 261.901 72.76H257.901ZM255.735 78.8978C254.41 80.2224 252.478 81 249.661 81V85C253.245 85 256.304 83.9856 258.563 81.7262L255.735 78.8978ZM249.661 81H225.981V85H249.661V81ZM227.981 83V38.2H223.981V83H227.981ZM225.981 40.2H237.181V36.2H225.981V40.2ZM235.181 38.2V49.72H239.181V38.2H235.181ZM289.029 73.08L289.601 74.9964L291.029 74.5702V73.08H289.029ZM289.029 49.08V47.08H287.029V49.08H289.029ZM300.229 49.08H302.229V47.08H300.229V49.08ZM300.229 83V85H302.229V83H300.229ZM290.309 83L288.348 83.3922L288.669 85H290.309V83ZM289.669 79.8L291.63 79.4078L291.047 76.4949L288.568 78.1305L289.669 79.8ZM283.461 82.744L284.01 84.667L284.023 84.6634L284.035 84.6597L283.461 82.744ZM268.293 81.016L269.707 79.6018L269.707 79.6018L268.293 81.016ZM265.669 49.08V47.08H263.669V49.08H265.669ZM276.869 49.08H278.869V47.08H276.869V49.08ZM277.509 73.72L278.923 72.3058L278.923 72.3058L277.509 73.72ZM281.349 76.36C283.854 76.36 286.612 75.8886 289.601 74.9964L288.457 71.1636C285.728 71.978 283.366 72.36 281.349 72.36V76.36ZM291.029 73.08V49.08H287.029V73.08H291.029ZM289.029 51.08H300.229V47.08H289.029V51.08ZM298.229 49.08V83H302.229V49.08H298.229ZM300.229 81H290.309V85H300.229V81ZM292.27 82.6078L291.63 79.4078L287.708 80.1922L288.348 83.3922L292.27 82.6078ZM288.568 78.1305C286.712 79.3543 284.819 80.2485 282.886 80.8283L284.035 84.6597C286.369 83.9595 288.615 82.8911 290.77 81.4695L288.568 78.1305ZM282.911 80.821C280.92 81.39 279.346 81.64 278.149 81.64V85.64C279.853 85.64 281.82 85.2927 284.01 84.667L282.911 80.821ZM278.149 81.64H275.269V85.64H278.149V81.64ZM275.269 81.64C272.799 81.64 271.017 80.9115 269.707 79.6018L266.879 82.4302C269.067 84.6191 271.936 85.64 275.269 85.64V81.64ZM269.707 79.6018C268.397 78.292 267.669 76.5097 267.669 74.04H263.669C263.669 77.373 264.69 80.2413 266.879 82.4302L269.707 79.6018ZM267.669 74.04V49.08H263.669V74.04H267.669ZM265.669 51.08H276.869V47.08H265.669V51.08ZM274.869 49.08V72.12H278.869V49.08H274.869ZM274.869 72.12C274.869 73.2547 275.268 74.308 276.095 75.1342L278.923 72.3058C278.905 72.288 278.897 72.2761 278.893 72.2706C278.889 72.2653 278.887 72.2614 278.886 72.2572C278.884 72.2523 278.869 72.2146 278.869 72.12H274.869ZM276.095 75.1342C276.921 75.9605 277.974 76.36 279.109 76.36V72.36C279.014 72.36 278.976 72.345 278.972 72.343C278.967 72.3414 278.963 72.3394 278.958 72.3359C278.953 72.3322 278.941 72.3236 278.923 72.3058L276.095 75.1342ZM279.109 76.36H281.349V72.36H279.109V76.36ZM343.15 41.976L341.724 43.3781L341.736 43.3903L341.748 43.4022L343.15 41.976ZM343.15 79.288L344.564 80.7022L344.564 80.7022L343.15 79.288ZM307.246 83H305.246V85H307.246V83ZM307.246 38.2V36.2H305.246V38.2H307.246ZM318.766 47.16V45.16H316.766V47.16H318.766ZM318.766 74.04H316.766V76.04H318.766V74.04ZM332.206 40.2C336.693 40.2 339.746 41.3663 341.724 43.3781L344.577 40.5739C341.605 37.551 337.362 36.2 332.206 36.2V40.2ZM341.748 43.4022C343.76 45.3799 344.926 48.4335 344.926 52.92H348.926C348.926 47.7638 347.575 43.5214 344.552 40.5498L341.748 43.4022ZM344.926 52.92V68.28H348.926V52.92H344.926ZM344.926 68.28C344.926 72.764 343.761 75.849 341.736 77.8738L344.564 80.7022C347.574 77.6924 348.926 73.4387 348.926 68.28H344.926ZM341.736 77.8738C339.76 79.85 336.702 81 332.206 81V85C337.354 85 341.591 83.6753 344.564 80.7022L341.736 77.8738ZM332.206 81H307.246V85H332.206V81ZM309.246 83V38.2H305.246V83H309.246ZM307.246 40.2H332.206V36.2H307.246V40.2ZM337.406 52.92C337.406 50.6917 336.848 48.6531 335.38 47.1858C333.913 45.7184 331.875 45.16 329.646 45.16V49.16C331.258 49.16 332.099 49.5616 332.552 50.0142C333.005 50.4669 333.406 51.3083 333.406 52.92H337.406ZM329.646 45.16H318.766V49.16H329.646V45.16ZM316.766 47.16V74.04H320.766V47.16H316.766ZM318.766 76.04H329.646V72.04H318.766V76.04ZM329.646 76.04C331.875 76.04 333.913 75.4816 335.38 74.0142C336.848 72.5469 337.406 70.5083 337.406 68.28H333.406C333.406 69.8917 333.005 70.7331 332.552 71.1858C332.099 71.6384 331.258 72.04 329.646 72.04V76.04ZM337.406 68.28V52.92H333.406V68.28H337.406ZM374.749 57.72L373.335 59.1342L373.335 59.1342L374.749 57.72ZM366.877 57.336L366.621 55.3524L366.612 55.3535L366.877 57.336ZM363.869 57.72L363.635 55.7337L361.869 55.9415V57.72H363.869ZM363.869 74.36H361.869V76.36H363.869V74.36ZM363.869 49.72H361.869V52.1744L364.273 51.6788L363.869 49.72ZM383.965 51.064L382.551 52.4782L382.551 52.4782L383.965 51.064ZM383.837 80.312L382.423 78.8978L382.423 78.8978L383.837 80.312ZM352.669 83H350.669V85H352.669V83ZM352.669 38.2V36.2H350.669V38.2H352.669ZM363.869 38.2H365.869V36.2H363.869V38.2ZM377.389 59.32C377.389 58.1853 376.989 57.132 376.163 56.3058L373.335 59.1342C373.352 59.152 373.361 59.1639 373.365 59.1694C373.368 59.1747 373.37 59.1786 373.372 59.1828C373.374 59.1877 373.389 59.2254 373.389 59.32H377.389ZM376.163 56.3058C375.337 55.4795 374.283 55.08 373.149 55.08V59.08C373.243 59.08 373.281 59.095 373.286 59.097C373.29 59.0986 373.294 59.1006 373.299 59.1041C373.305 59.1078 373.317 59.1164 373.335 59.1342L376.163 56.3058ZM373.149 55.08H371.549V59.08H373.149V55.08ZM371.549 55.08C369.698 55.08 368.051 55.1678 366.621 55.3524L367.133 59.3196C368.347 59.1628 369.815 59.08 371.549 59.08V55.08ZM366.612 55.3535C365.336 55.5237 364.345 55.6501 363.635 55.7337L364.102 59.7063C364.843 59.6192 365.857 59.4896 367.141 59.3185L366.612 55.3535ZM361.869 57.72V74.36H365.869V57.72H361.869ZM363.869 76.36H372.829V72.36H363.869V76.36ZM372.829 76.36C373.99 76.36 375.229 76.0682 376.163 75.1342C377.097 74.2002 377.389 72.9616 377.389 71.8H373.389C373.389 72.345 373.254 72.3865 373.335 72.3058C373.415 72.2251 373.374 72.36 372.829 72.36V76.36ZM377.389 71.8V59.32H373.389V71.8H377.389ZM364.273 51.6788C368.322 50.8439 371.808 50.44 374.749 50.44V46.44C371.46 46.44 367.693 46.8895 363.465 47.7612L364.273 51.6788ZM374.749 50.44H376.989V46.44H374.749V50.44ZM376.989 50.44C379.458 50.44 381.241 51.1685 382.551 52.4782L385.379 49.6498C383.19 47.4609 380.322 46.44 376.989 46.44V50.44ZM382.551 52.4782C383.86 53.788 384.589 55.5703 384.589 58.04H388.589C388.589 54.707 387.568 51.8387 385.379 49.6498L382.551 52.4782ZM384.589 58.04V72.76H388.589V58.04H384.589ZM384.589 72.76C384.589 75.5609 383.798 77.5218 382.423 78.8978L385.251 81.7262C387.544 79.4328 388.589 76.3591 388.589 72.76H384.589ZM382.423 78.8978C381.098 80.2224 379.165 81 376.349 81V85C379.932 85 382.992 83.9856 385.251 81.7262L382.423 78.8978ZM376.349 81H352.669V85H376.349V81ZM354.669 83V38.2H350.669V83H354.669ZM352.669 40.2H363.869V36.2H352.669V40.2ZM361.869 38.2V49.72H365.869V38.2H361.869Z" fill="#B00038"/>
</g>
<path d="M3 66V3H217" stroke="#B00038" stroke-width="5" stroke-linejoin="round"/>
<path d="M432 58V121H218" stroke="#B00038" stroke-width="5" stroke-linejoin="round"/>
<defs>
<filter id="filter0_d" x="42.6837" y="36.2" width="349.905" height="57.44" filterUnits="userSpaceOnUse" color-interpolation-filters="sRGB">
<feFlood flood-opacity="0" result="BackgroundImageFix"/>
<feColorMatrix in="SourceAlpha" type="matrix" values="0 0 0 0 0 0 0 0 0 0 0 0 0 0 0 0 0 0 127 0"/>
<feOffset dy="4"/>
<feGaussianBlur stdDeviation="2"/>
<feColorMatrix type="matrix" values="0 0 0 0 0 0 0 0 0 0 0 0 0 0 0 0 0 0 0.25 0"/>
<feBlend mode="normal" in2="BackgroundImageFix" result="effect1_dropShadow"/>
<feBlend mode="normal" in="SourceGraphic" in2="effect1_dropShadow" result="shape"/>
</filter>
</defs>
</svg>
