<svg width="60" height="60" viewBox="0 0 60 60" fill="none" xmlns="http://www.w3.org/2000/svg">
<path d="M43.4275 26.04L34.4675 42.04H25.5075L16.5475 26.04V51H5.0275V6.2H17.1875L29.9875 29.88L42.7875 6.2H54.9475V51H43.4275V26.04Z" fill="white"/>
<path d="M43.4275 26.04H44.4275V22.2076L42.555 25.5514L43.4275 26.04ZM34.4675 42.04V43.04H35.0536L35.34 42.5286L34.4675 42.04ZM25.5075 42.04L24.635 42.5286L24.9214 43.04H25.5075V42.04ZM16.5475 26.04L17.42 25.5514L15.5475 22.2076V26.04H16.5475ZM16.5475 51V52H17.5475V51H16.5475ZM5.0275 51H4.0275V52H5.0275V51ZM5.0275 6.2V5.2H4.0275V6.2H5.0275ZM17.1875 6.2L18.0672 5.72448L17.7837 5.2H17.1875V6.2ZM29.9875 29.88L29.1078 30.3555L29.9875 31.983L30.8672 30.3555L29.9875 29.88ZM42.7875 6.2V5.2H42.1913L41.9078 5.72448L42.7875 6.2ZM54.9475 6.2H55.9475V5.2H54.9475V6.2ZM54.9475 51V52H55.9475V51H54.9475ZM43.4275 51H42.4275V52H43.4275V51ZM42.555 25.5514L33.595 41.5514L35.34 42.5286L44.3 26.5286L42.555 25.5514ZM34.4675 41.04H25.5075V43.04H34.4675V41.04ZM26.38 41.5514L17.42 25.5514L15.675 26.5286L24.635 42.5286L26.38 41.5514ZM15.5475 26.04V51H17.5475V26.04H15.5475ZM16.5475 50H5.0275V52H16.5475V50ZM6.0275 51V6.2H4.0275V51H6.0275ZM5.0275 7.2H17.1875V5.2H5.0275V7.2ZM16.3078 6.67551L29.1078 30.3555L30.8672 29.4045L18.0672 5.72448L16.3078 6.67551ZM30.8672 30.3555L43.6672 6.67551L41.9078 5.72448L29.1078 29.4045L30.8672 30.3555ZM42.7875 7.2H54.9475V5.2H42.7875V7.2ZM53.9475 6.2V51H55.9475V6.2H53.9475ZM54.9475 50H43.4275V52H54.9475V50ZM44.4275 51V26.04H42.4275V51H44.4275Z" fill="#B00038"/>
<path d="M7.2825 6.2H19.4425L30.0025 27.96L40.5625 6.2H52.7225L35.7625 39.16V51H24.2425V39.16L7.2825 6.2Z" fill="black"/>
<path d="M7.2825 6.2V5.2H5.64331L6.39331 6.65754L7.2825 6.2ZM19.4425 6.2L20.3422 5.7634L20.0687 5.2H19.4425V6.2ZM30.0025 27.96L29.1028 28.3966L30.0025 30.2504L30.9022 28.3966L30.0025 27.96ZM40.5625 6.2V5.2H39.9363L39.6628 5.7634L40.5625 6.2ZM52.7225 6.2L53.6117 6.65754L54.3617 5.2H52.7225V6.2ZM35.7625 39.16L34.8733 38.7025L34.7625 38.9178V39.16H35.7625ZM35.7625 51V52H36.7625V51H35.7625ZM24.2425 51H23.2425V52H24.2425V51ZM24.2425 39.16H25.2425V38.9178L25.1317 38.7025L24.2425 39.16ZM7.2825 7.2H19.4425V5.2H7.2825V7.2ZM18.5428 6.6366L29.1028 28.3966L30.9022 27.5234L20.3422 5.7634L18.5428 6.6366ZM30.9022 28.3966L41.4622 6.63659L39.6628 5.7634L29.1028 27.5234L30.9022 28.3966ZM40.5625 7.2H52.7225V5.2H40.5625V7.2ZM51.8333 5.74245L34.8733 38.7025L36.6517 39.6175L53.6117 6.65754L51.8333 5.74245ZM34.7625 39.16V51H36.7625V39.16H34.7625ZM35.7625 50H24.2425V52H35.7625V50ZM25.2425 51V39.16H23.2425V51H25.2425ZM25.1317 38.7025L8.17169 5.74245L6.39331 6.65754L23.3533 39.6175L25.1317 38.7025Z" fill="#B00038"/>
</svg>
