<svg width="60" height="60" viewBox="0 0 60 60" fill="none" xmlns="http://www.w3.org/2000/svg">
<path d="M43.4275 26.04L34.4675 42.04H25.5075L16.5475 26.04V51H5.0275V6.2H17.1875L29.9875 29.88L42.7875 6.2H54.9475V51H43.4275V26.04Z" fill="black"/>
<path d="M43.4275 26.04L34.4675 42.04H25.5075L16.5475 26.04V51H5.0275V6.2H17.1875L29.9875 29.88L42.7875 6.2H54.9475V51H43.4275V26.04Z" fill="white"/>
<path d="M43.4275 26.04H45.4275V18.3753L41.6825 25.0628L43.4275 26.04ZM34.4675 42.04V44.04H35.6398L36.2125 43.0172L34.4675 42.04ZM25.5075 42.04L23.7625 43.0172L24.3353 44.04H25.5075V42.04ZM16.5475 26.04L18.2925 25.0628L14.5475 18.3753V26.04H16.5475ZM16.5475 51V53H18.5475V51H16.5475ZM5.0275 51H3.0275V53H5.0275V51ZM5.0275 6.2V4.2H3.0275V6.2H5.0275ZM17.1875 6.2L18.9469 5.24896L18.3799 4.2H17.1875V6.2ZM29.9875 29.88L28.2281 30.831L29.9875 34.0859L31.7469 30.831L29.9875 29.88ZM42.7875 6.2V4.2H41.5951L41.0281 5.24896L42.7875 6.2ZM54.9475 6.2H56.9475V4.2H54.9475V6.2ZM54.9475 51V53H56.9475V51H54.9475ZM43.4275 51H41.4275V53H43.4275V51ZM41.6825 25.0628L32.7225 41.0628L36.2125 43.0172L45.1725 27.0172L41.6825 25.0628ZM34.4675 40.04H25.5075V44.04H34.4675V40.04ZM27.2525 41.0628L18.2925 25.0628L14.8025 27.0172L23.7625 43.0172L27.2525 41.0628ZM14.5475 26.04V51H18.5475V26.04H14.5475ZM16.5475 49H5.0275V53H16.5475V49ZM7.0275 51V6.2H3.0275V51H7.0275ZM5.0275 8.2H17.1875V4.2H5.0275V8.2ZM15.4281 7.15103L28.2281 30.831L31.7469 28.929L18.9469 5.24896L15.4281 7.15103ZM31.7469 30.831L44.5469 7.15103L41.0281 5.24896L28.2281 28.929L31.7469 30.831ZM42.7875 8.2H54.9475V4.2H42.7875V8.2ZM52.9475 6.2V51H56.9475V6.2H52.9475ZM54.9475 49H43.4275V53H54.9475V49ZM45.4275 51V26.04H41.4275V51H45.4275Z" fill="#B00038"/>
<path d="M7.2825 6.2H19.4425L30.0025 27.96L40.5625 6.2H52.7225L35.7625 39.16V51H24.2425V39.16L7.2825 6.2Z" fill="black"/>
<path d="M7.2825 6.2V4.2H4.00413L5.50412 7.11508L7.2825 6.2ZM19.4425 6.2L21.2418 5.3268L20.695 4.2H19.4425V6.2ZM30.0025 27.96L28.2032 28.8332L30.0025 32.5409L31.8018 28.8332L30.0025 27.96ZM40.5625 6.2V4.2H39.31L38.7632 5.3268L40.5625 6.2ZM52.7225 6.2L54.5009 7.11508L56.0009 4.2H52.7225V6.2ZM35.7625 39.16L33.9841 38.2449L33.7625 38.6756V39.16H35.7625ZM35.7625 51V53H37.7625V51H35.7625ZM24.2425 51H22.2425V53H24.2425V51ZM24.2425 39.16H26.2425V38.6756L26.0209 38.2449L24.2425 39.16ZM7.2825 8.2H19.4425V4.2H7.2825V8.2ZM17.6432 7.07319L28.2032 28.8332L31.8018 27.0868L21.2418 5.3268L17.6432 7.07319ZM31.8018 28.8332L42.3618 7.07319L38.7632 5.3268L28.2032 27.0868L31.8018 28.8332ZM40.5625 8.2H52.7225V4.2H40.5625V8.2ZM50.9441 5.28491L33.9841 38.2449L37.5409 40.0751L54.5009 7.11508L50.9441 5.28491ZM33.7625 39.16V51H37.7625V39.16H33.7625ZM35.7625 49H24.2425V53H35.7625V49ZM26.2425 51V39.16H22.2425V51H26.2425ZM26.0209 38.2449L9.06087 5.28491L5.50412 7.11508L22.4641 40.0751L26.0209 38.2449Z" fill="#B00038"/>
</svg>
