<svg width="117" height="41" viewBox="0 0 117 41" fill="none" xmlns="http://www.w3.org/2000/svg">
<path d="M25.8267 19.1828L23.6987 22.9828H21.5707L19.4427 19.1828V25.1108H16.7067V14.4708H19.5947L22.6347 20.0948L25.6747 14.4708H28.5627V25.1108H25.8267V19.1828ZM33.4326 23.1348C33.9697 23.1348 34.5777 23.0334 35.2566 22.8308V21.9188H33.0526C32.9006 21.9188 32.7739 21.9694 32.6726 22.0708C32.5713 22.1721 32.5206 22.2988 32.5206 22.4508V22.6028C32.5206 22.7548 32.5713 22.8814 32.6726 22.9828C32.7739 23.0841 32.9006 23.1348 33.0526 23.1348H33.4326ZM30.6206 17.2068C32.475 17.0041 34.147 16.9028 35.6366 16.9028C36.3257 16.9028 36.8779 17.1105 37.2934 17.526C37.7089 17.9414 37.9166 18.4937 37.9166 19.1828V25.1108H35.5606L35.4086 24.3508C34.9323 24.6649 34.4409 24.898 33.9342 25.05C33.4377 25.1918 33.0171 25.2628 32.6726 25.2628H32.1406C31.4515 25.2628 30.8993 25.055 30.4838 24.6396C30.0683 24.2241 29.8606 23.6718 29.8606 22.9828V22.2988C29.8606 21.6097 30.0683 21.0574 30.4838 20.642C30.8993 20.2265 31.4515 20.0188 32.1406 20.0188H35.2566V19.4108C35.2566 19.2588 35.2059 19.1321 35.1046 19.0308C35.0033 18.9294 34.8766 18.8788 34.7246 18.8788C34.0659 18.8788 33.3363 18.9092 32.5358 18.97C31.7454 19.0308 31.107 19.0764 30.6206 19.1068V17.2068ZM43.7645 19.1068C43.2274 19.1068 42.6194 19.2081 41.9405 19.4108V25.1108H39.2805V17.0548H41.6365L41.7885 17.8148C42.2647 17.5006 42.7511 17.2726 43.2477 17.1308C43.7543 16.9788 44.1799 16.9028 44.5245 16.9028H45.2085C45.8975 16.9028 46.4498 17.1105 46.8653 17.526C47.2807 17.9414 47.4885 18.4937 47.4885 19.1828V25.1108H44.8285V19.6388C44.8285 19.4868 44.7778 19.3601 44.6765 19.2588C44.5751 19.1574 44.4485 19.1068 44.2965 19.1068H43.7645ZM54.0987 24.5028C53.1157 24.7054 52.2544 24.8068 51.5147 24.8068H50.9827C50.2936 24.8068 49.7413 24.599 49.3259 24.1836C48.9104 23.7681 48.7027 23.2158 48.7027 22.5268V19.4868C48.7027 18.7268 48.9155 18.134 49.3411 17.7084C49.7768 17.2726 50.3747 17.0548 51.1347 17.0548H56.7587V25.5668C56.7587 26.2558 56.5509 26.8081 56.1355 27.2236C55.72 27.639 55.1677 27.8468 54.4787 27.8468C52.8877 27.8468 51.1144 27.7454 49.1587 27.5428V25.5668C51.0941 25.7188 52.5635 25.7948 53.5667 25.7948C53.7187 25.7948 53.8453 25.7441 53.9467 25.6428C54.048 25.5414 54.0987 25.4148 54.0987 25.2628V24.5028ZM52.2747 22.7548C52.9131 22.7548 53.5211 22.7041 54.0987 22.6028V19.1068H51.9707C51.5653 19.1068 51.3627 19.3094 51.3627 19.7148V22.2228C51.3627 22.3748 51.4133 22.5014 51.5147 22.6028C51.616 22.7041 51.7427 22.7548 51.8947 22.7548H52.2747ZM61.4725 23.1348C62.0095 23.1348 62.6175 23.0334 63.2965 22.8308V21.9188H61.0925C60.9405 21.9188 60.8138 21.9694 60.7125 22.0708C60.6111 22.1721 60.5605 22.2988 60.5605 22.4508V22.6028C60.5605 22.7548 60.6111 22.8814 60.7125 22.9828C60.8138 23.0841 60.9405 23.1348 61.0925 23.1348H61.4725ZM58.6605 17.2068C60.5149 17.0041 62.1869 16.9028 63.6765 16.9028C64.3655 16.9028 64.9178 17.1105 65.3333 17.526C65.7487 17.9414 65.9565 18.4937 65.9565 19.1828V25.1108H63.6005L63.4485 24.3508C62.9722 24.6649 62.4807 24.898 61.9741 25.05C61.4775 25.1918 61.057 25.2628 60.7125 25.2628H60.1805C59.4914 25.2628 58.9391 25.055 58.5237 24.6396C58.1082 24.2241 57.9005 23.6718 57.9005 22.9828V22.2988C57.9005 21.6097 58.1082 21.0574 58.5237 20.642C58.9391 20.2265 59.4914 20.0188 60.1805 20.0188H63.2965V19.4108C63.2965 19.2588 63.2458 19.1321 63.1445 19.0308C63.0431 18.9294 62.9165 18.8788 62.7645 18.8788C62.1058 18.8788 61.3762 18.9092 60.5757 18.97C59.7853 19.0308 59.1469 19.0764 58.6605 19.1068V17.2068ZM74.7653 22.9828H80.3133V25.1108H72.0293V14.4708H74.7653V22.9828ZM84.5729 17.3588V25.1108H81.9129V19.4108H80.7729V17.3588H84.5729ZM81.9129 14.3188H84.5729V16.4468H81.9129V14.3188ZM85.7936 22.9828C87.8507 23.1348 89.472 23.2108 90.6576 23.2108C90.8096 23.2108 90.9363 23.1601 91.0376 23.0588C91.139 22.9574 91.1896 22.8308 91.1896 22.6788V22.1468H87.9216C87.2326 22.1468 86.6803 21.939 86.2648 21.5236C85.8494 21.1081 85.6416 20.5558 85.6416 19.8668V19.3348C85.6416 18.6457 85.8494 18.0934 86.2648 17.678C86.6803 17.2625 87.2326 17.0548 87.9216 17.0548H93.0896V19.0308H88.8336C88.6816 19.0308 88.555 19.0814 88.4536 19.1828C88.3523 19.2841 88.3016 19.4108 88.3016 19.5628C88.3016 19.7148 88.3523 19.8414 88.4536 19.9428C88.555 20.0441 88.6816 20.0948 88.8336 20.0948H91.5696C92.2587 20.0948 92.811 20.3025 93.2264 20.718C93.6419 21.1334 93.8496 21.6857 93.8496 22.3748V22.9828C93.8496 23.6718 93.6419 24.2241 93.2264 24.6396C92.811 25.055 92.2587 25.2628 91.5696 25.2628C89.776 25.2628 87.8507 25.1614 85.7936 24.9588V22.9828ZM100.539 25.1108C99.5559 25.2121 98.5932 25.2628 97.6508 25.2628C96.9618 25.2628 96.4095 25.055 95.994 24.6396C95.5786 24.2241 95.3708 23.6718 95.3708 22.9828V19.1068H94.4588V17.0548H95.3708L95.6748 15.2308H98.0308V17.0548H99.9308V19.1068H98.0308V22.6028C98.0308 22.7548 98.0815 22.8814 98.1828 22.9828C98.2842 23.0841 98.4108 23.1348 98.5628 23.1348H100.539V25.1108Z" fill="#9D9D9D"/>
<path d="M114.987 20.7467V39.4933H58.4932" stroke="#B00038" stroke-width="2.53333" stroke-linejoin="round"/>
<path d="M2 20.7467V2H58.4933" stroke="#B00038" stroke-width="2.53333" stroke-linejoin="round"/>
</svg>
