<svg width="117" height="41" viewBox="0 0 117 41" fill="none" xmlns="http://www.w3.org/2000/svg">
<path d="M22.0383 22.9068C24.8148 23.0588 26.6945 23.1348 27.6775 23.1348C27.9105 23.1348 28.0929 23.0689 28.2247 22.9372C28.3665 22.7953 28.4375 22.6078 28.4375 22.3748V21.0068H24.9415C23.8775 21.0068 23.1023 20.7686 22.6159 20.2924C22.1396 19.806 21.9015 19.0308 21.9015 17.9668V17.5108C21.9015 16.4468 22.1396 15.6766 22.6159 15.2004C23.1023 14.714 23.8775 14.4708 24.9415 14.4708H30.2767V16.5988H25.5495C24.9415 16.5988 24.6375 16.9028 24.6375 17.5108V17.8148C24.6375 18.4228 24.9415 18.7268 25.5495 18.7268H28.2855C29.2785 18.7268 30.0081 18.9598 30.4743 19.426C30.9404 19.8921 31.1735 20.6217 31.1735 21.6148V22.3748C31.1735 23.3678 30.9404 24.0974 30.4743 24.5636C30.0081 25.0297 29.2785 25.2628 28.2855 25.2628C27.7687 25.2628 27.2215 25.2526 26.6439 25.2324L25.2455 25.1716C24.2119 25.1209 23.1428 25.05 22.0383 24.9588V22.9068ZM38.0123 25.1108C37.0293 25.2121 36.0667 25.2628 35.1243 25.2628C34.4352 25.2628 33.8829 25.055 33.4675 24.6396C33.052 24.2241 32.8443 23.6718 32.8443 22.9828V19.1068H31.9323V17.0548H32.8443L33.1483 15.2308H35.5043V17.0548H37.4043V19.1068H35.5043V22.6028C35.5043 22.7548 35.5549 22.8814 35.6563 22.9828C35.7576 23.0841 35.8843 23.1348 36.0363 23.1348H38.0123V25.1108ZM41.9779 23.1348C42.515 23.1348 43.123 23.0334 43.8019 22.8308V21.9188H41.5979C41.4459 21.9188 41.3193 21.9694 41.2179 22.0708C41.1166 22.1721 41.0659 22.2988 41.0659 22.4508V22.6028C41.0659 22.7548 41.1166 22.8814 41.2179 22.9828C41.3193 23.0841 41.4459 23.1348 41.5979 23.1348H41.9779ZM39.1659 17.2068C41.0203 17.0041 42.6923 16.9028 44.1819 16.9028C44.871 16.9028 45.4233 17.1105 45.8387 17.526C46.2542 17.9414 46.4619 18.4937 46.4619 19.1828V25.1108H44.1059L43.9539 24.3508C43.4777 24.6649 42.9862 24.898 42.4795 25.05C41.983 25.1918 41.5625 25.2628 41.2179 25.2628H40.6859C39.9969 25.2628 39.4446 25.055 39.0291 24.6396C38.6137 24.2241 38.4059 23.6718 38.4059 22.9828V22.2988C38.4059 21.6097 38.6137 21.0574 39.0291 20.642C39.4446 20.2265 39.9969 20.0188 40.6859 20.0188H43.8019V19.4108C43.8019 19.2588 43.7513 19.1321 43.6499 19.0308C43.5486 18.9294 43.4219 18.8788 43.2699 18.8788C42.6113 18.8788 41.8817 18.9092 41.0811 18.97C40.2907 19.0308 39.6523 19.0764 39.1659 19.1068V17.2068ZM53.4498 25.1108C52.4668 25.2121 51.5042 25.2628 50.5618 25.2628C49.8727 25.2628 49.3204 25.055 48.905 24.6396C48.4895 24.2241 48.2818 23.6718 48.2818 22.9828V19.1068H47.3698V17.0548H48.2818L48.5858 15.2308H50.9418V17.0548H52.8418V19.1068H50.9418V22.6028C50.9418 22.7548 50.9924 22.8814 51.0938 22.9828C51.1951 23.0841 51.3218 23.1348 51.4738 23.1348H53.4498V25.1108ZM57.5674 17.3588V25.1108H54.9074V19.4108H53.7674V17.3588H57.5674ZM54.9074 14.3188H57.5674V16.4468H54.9074V14.3188ZM58.7882 22.9828C60.8452 23.1348 62.4666 23.2108 63.6522 23.2108C63.8042 23.2108 63.9308 23.1601 64.0322 23.0588C64.1335 22.9574 64.1842 22.8308 64.1842 22.6788V22.1468H60.9162C60.2271 22.1468 59.6748 21.939 59.2594 21.5236C58.8439 21.1081 58.6362 20.5558 58.6362 19.8668V19.3348C58.6362 18.6457 58.8439 18.0934 59.2594 17.678C59.6748 17.2625 60.2271 17.0548 60.9162 17.0548H66.0842V19.0308H61.8282C61.6762 19.0308 61.5495 19.0814 61.4482 19.1828C61.3468 19.2841 61.2962 19.4108 61.2962 19.5628C61.2962 19.7148 61.3468 19.8414 61.4482 19.9428C61.5495 20.0441 61.6762 20.0948 61.8282 20.0948H64.5642C65.2532 20.0948 65.8055 20.3025 66.221 20.718C66.6364 21.1334 66.8442 21.6857 66.8442 22.3748V22.9828C66.8442 23.6718 66.6364 24.2241 66.221 24.6396C65.8055 25.055 65.2532 25.2628 64.5642 25.2628C62.7706 25.2628 60.8452 25.1614 58.7882 24.9588V22.9828ZM73.5334 25.1108C72.5504 25.2121 71.5878 25.2628 70.6454 25.2628C69.9563 25.2628 69.404 25.055 68.9886 24.6396C68.5731 24.2241 68.3654 23.6718 68.3654 22.9828V19.1068H67.4534V17.0548H68.3654L68.6694 15.2308H71.0254V17.0548H72.9254V19.1068H71.0254V22.6028C71.0254 22.7548 71.076 22.8814 71.1774 22.9828C71.2787 23.0841 71.4054 23.1348 71.5574 23.1348H73.5334V25.1108ZM77.651 17.3588V25.1108H74.991V19.4108H73.851V17.3588H77.651ZM74.991 14.3188H77.651V16.4468H74.991V14.3188ZM81.8358 21.9188V25.1108H79.1758V14.4708H81.8358V19.8668H83.0518L84.7238 17.0548H87.5358L85.2558 20.9308L87.5358 25.1108H84.7238L82.9758 21.9188H81.8358ZM90.4178 27.8468C89.8808 27.8468 89.2221 27.7961 88.4418 27.6948V25.7188H89.8098C90.1949 25.7188 90.4432 25.6124 90.5546 25.3996C90.6762 25.1868 90.656 24.8878 90.4938 24.5028L87.3778 17.0548H90.1898L92.0898 22.2228L93.6858 17.0548H96.4978L93.4578 25.4148C93.164 26.2153 92.784 26.8182 92.3178 27.2236C91.8517 27.639 91.2184 27.8468 90.4178 27.8468Z" fill="#9D9D9D"/>
<path d="M114.987 20.7467V39.4933H58.4932" stroke="#B00038" stroke-width="2.53333" stroke-linejoin="round"/>
<path d="M2 20.7467V2H58.4933" stroke="#B00038" stroke-width="2.53333" stroke-linejoin="round"/>
</svg>
